<svg xmlns="http://www.w3.org/2000/svg" viewBox="0 0 32 32">
    <path id="wordpress" d="M16,4.72a11.22381,11.22381,0,0,1,6.30625,1.926,11.315,11.315,0,0,1,4.08761,4.96351A11.26419,11.26419,0,0,1,25.354,22.30625a11.31515,11.31515,0,0,1-4.96351,4.08761A11.26419,11.26419,0,0,1,9.69375,25.354a11.31486,11.31486,0,0,1-4.08761-4.96352A11.26427,11.26427,0,0,1,6.646,9.69374a11.3152,11.3152,0,0,1,4.96353-4.0876A11.20866,11.20866,0,0,1,16,4.72M16,4A12,12,0,1,0,28,16,12,12,0,0,0,16,4ZM6,15.99962a10.00058,10.00058,0,0,0,5.63617,8.99959L6.86589,11.93A9.96113,9.96113,0,0,0,6,15.99962Zm16.75083-.50433a5.26635,5.26635,0,0,0-.82438-2.75778,4.6823,4.6823,0,0,1-.9823-2.3454,1.73148,1.73148,0,0,1,1.67928-1.77474c.04437,0,.08639.00534.12948.0081A9.99773,9.99773,0,0,0,7.64471,10.5071c.23481.00743.456.01214.6436.01214,1.04573,0,2.66524-.12713,2.66524-.12713a.41335.41335,0,0,1,.06394.82408s-.54191.06345-1.1444.095l3.6414,10.8318,2.18871-6.56315-1.5579-4.26865c-.53878-.03157-1.04886-.095-1.04886-.095a.41334.41334,0,0,1,.06344-.82408s1.65107.12713,2.63364.12713c1.04573,0,2.66551-.12713,2.66551-.12713a.41334.41334,0,0,1,.06369.82408s-.54244.06345-1.14442.095l3.61389,10.74932,1.03162-3.26886A11.52917,11.52917,0,0,0,22.75083,15.49529Zm-6.57514,1.379-3.00082,8.7182A10.0042,10.0042,0,0,0,19.321,25.433a.91287.91287,0,0,1-.07177-.13782Zm8.59964-5.672a7.68093,7.68093,0,0,1,.06723,1.02821,9.43977,9.43977,0,0,1-.76068,3.58162l-3.05419,8.83071a10.00141,10.00141,0,0,0,3.74764-13.44054Z" fill="#262626"/>
</svg>
